<svg width="512" height="512"  version="1.1" xmlns="http://www.w3.org/2000/svg" xmlns:xlink="http://www.w3.org/1999/xlink" xml:space="preserve" xmlns:serif="http://www.serif.com/" style="fill-rule:evenodd;clip-rule:evenodd;stroke-miterlimit:1.5;">
    
    <g>
        <g>
            <g transform="matrix(1.06383,0,0,1.06383,-0.382979,-0.382979)">
                <rect x="6" y="6" width="94" height="94" style="fill:rgb(222,82,115);"/>
            </g>
            <g transform="matrix(1.06383,0,0,1.06383,99.617,-0.382979)">
                <rect x="6" y="6" width="94" height="94" style="fill:rgb(241,120,109);"/>
            </g>
            <g transform="matrix(1.06383,0,0,1.06383,199.617,-0.382979)">
                <rect x="6" y="6" width="94" height="94" style="fill:rgb(255,160,110);"/>
            </g>
            <g transform="matrix(1.06383,0,0,1.06383,299.617,-0.382979)">
                <rect x="6" y="6" width="94" height="94" style="fill:rgb(255,196,133);"/>
            </g>
            <g transform="matrix(1.06383,0,0,1.06383,399.617,-0.382979)">
                <rect x="6" y="6" width="94" height="94" style="fill:rgb(255,227,172);"/>
            </g>
            <g transform="matrix(1.06383,0,0,1.06383,-0.382979,99.617)">
                <rect x="6" y="6" width="94" height="94" style="fill:rgb(191,68,61);"/>
            </g>
            <g transform="matrix(1.06383,0,0,1.06383,99.617,99.617)">
                <rect x="6" y="6" width="94" height="94" style="fill:rgb(207,101,56);"/>
            </g>
            <g transform="matrix(1.06383,0,0,1.06383,199.617,99.617)">
                <rect x="6" y="6" width="94" height="94" style="fill:rgb(224,137,50);"/>
            </g>
            <g transform="matrix(1.06383,0,0,1.06383,299.617,99.617)">
                <rect x="6" y="6" width="94" height="94" style="fill:rgb(241,172,43);"/>
            </g>
            <g transform="matrix(1.06383,0,0,1.06383,399.617,99.617)">
                <rect x="6" y="6" width="94" height="94" style="fill:rgb(253,207,63);"/>
            </g>
            <g transform="matrix(1.06383,0,0,1.06383,-0.382979,199.617)">
                <rect x="6" y="6" width="94" height="94" style="fill:rgb(155,50,3);"/>
            </g>
            <g transform="matrix(1.06383,0,0,1.06383,99.617,199.617)">
                <rect x="6" y="6" width="94" height="94" style="fill:rgb(168,88,0);"/>
            </g>
            <g transform="matrix(1.06383,0,0,1.06383,199.617,199.617)">
                <rect x="6" y="6" width="94" height="94" style="fill:rgb(190,126,0);"/>
            </g>
            <g transform="matrix(1.06383,0,0,1.06383,299.617,199.617)">
                <rect x="6" y="6" width="94" height="94" style="fill:rgb(201,159,13);"/>
            </g>
            <g transform="matrix(1.06383,0,0,1.06383,399.617,199.617)">
                <rect x="6" y="6" width="94" height="94" style="fill:rgb(208,190,34);"/>
            </g>
            <g transform="matrix(1.06383,0,0,1.06383,-0.382979,299.617)">
                <rect x="6" y="6" width="94" height="94" style="fill:rgb(92,47,0);"/>
            </g>
            <g transform="matrix(1.06383,0,0,1.06383,99.617,299.617)">
                <rect x="6" y="6" width="94" height="94" style="fill:rgb(119,76,0);"/>
            </g>
            <g transform="matrix(1.06383,0,0,1.06383,199.617,299.617)">
                <rect x="6" y="6" width="94" height="94" style="fill:rgb(138,105,0);"/>
            </g>
            <g transform="matrix(1.06383,0,0,1.06383,299.617,299.617)">
                <rect x="6" y="6" width="94" height="94" style="fill:rgb(157,138,0);"/>
            </g>
            <g transform="matrix(1.06383,0,0,1.06383,399.617,299.617)">
                <rect x="6" y="6" width="94" height="94" style="fill:rgb(165,173,5);"/>
            </g>
            <g transform="matrix(1.06383,0,0,1.06383,-0.382979,399.617)">
                <rect x="6" y="6" width="94" height="94" style="fill:rgb(42,28,0);"/>
            </g>
            <g transform="matrix(1.06383,0,0,1.06383,99.617,399.617)">
                <rect x="6" y="6" width="94" height="94" style="fill:rgb(67,50,0);"/>
            </g>
            <g transform="matrix(1.06383,0,0,1.06383,199.617,399.617)">
                <rect x="6" y="6" width="94" height="94" style="fill:rgb(94,86,0);"/>
            </g>
            <g transform="matrix(1.06383,0,0,1.06383,299.617,399.617)">
                <rect x="6" y="6" width="94" height="94" style="fill:rgb(112,118,0);"/>
            </g>
            <g transform="matrix(1.06383,0,0,1.06383,399.617,399.617)">
                <rect x="6" y="6" width="94" height="94" style="fill:rgb(129,157,0);"/>
            </g>
        </g>
    </g>
    <path d="M6,6L506,6L506,106L6,106L6,206L506,206L506,306L6,306L6,406L506,406L506,506L6,506" style="fill:none;stroke:black;stroke-width:12px;"/>
    <g transform="matrix(6.12323e-17,-1,1,6.12323e-17,5.68434e-14,512)">
        <path d="M0,6L506,6L506,106L6,106L6,206L506,206L506,306L6,306L6,406L506,406L506,506L6,506" style="fill:none;stroke:black;stroke-width:12px;"/>
    </g>

</svg>